<svg width="274" height="210" viewBox="0 0 274 210" fill="none" xmlns="http://www.w3.org/2000/svg">
<g clip-path="url(#clip0)">
<rect x="-35.5" y="9.5" width="150" height="184" fill="#FEFFBF" stroke="black"/>
<path d="M5.5 176C46.0929 176 79 143.093 79 102.5C79 61.9071 46.0929 29 5.5 29C-35.0929 29 -68 61.9071 -68 102.5C-68 143.093 -35.0929 176 5.5 176Z" fill="#D83589" fill-opacity="0.5"/>
<path d="M1.23248 99.7986C0.679844 99.7986 0.352354 99.7884 0.250013 99.7679C0.147672 99.7475 0.0965014 99.6349 0.0965014 99.4302C0.0965014 98.8776 0.209076 98.5398 0.434226 98.417C0.454694 98.3966 1.78513 98.3863 4.42552 98.3863C9.72677 98.3863 12.5207 98.4068 12.8072 98.4477C14.0967 98.6524 15.1713 99.1129 16.031 99.8293C16.8906 100.546 17.3307 101.487 17.3512 102.654C17.3512 103.964 16.7576 105.141 15.5704 106.185C14.3833 107.229 13.0221 107.935 11.487 108.303L11.18 108.395C12.49 108.579 13.5646 109.05 14.4037 109.808C15.2429 110.565 15.6728 111.506 15.6932 112.632C15.6932 114.126 14.9564 115.569 13.4827 116.961C12.009 118.353 10.1975 119.141 8.04838 119.325C7.90511 119.346 5.74572 119.356 1.57021 119.356C-2.52342 119.356 -4.60094 119.335 -4.66235 119.295C-4.74422 119.233 -4.78516 119.151 -4.78516 119.049C-4.78516 118.906 -4.76469 118.762 -4.72375 118.619C-4.62141 118.23 -4.51907 118.015 -4.41673 117.974C-4.33486 117.954 -4.18135 117.944 -3.9562 117.944H-3.77198C-3.21934 117.944 -2.6053 117.913 -1.92985 117.852C-1.64329 117.79 -1.44885 117.667 -1.3465 117.483C-1.2851 117.401 -0.548246 114.556 0.864058 108.948C2.27636 103.34 2.98251 100.382 2.98251 100.075C2.98251 99.9317 2.39917 99.8396 1.23248 99.7986ZM14.066 102.654C14.066 102.04 13.9125 101.467 13.6055 100.935C13.2985 100.402 12.797 100.054 12.1011 99.8907C11.9578 99.8498 11.0163 99.8191 9.27647 99.7986C8.86711 99.7986 8.43728 99.7986 7.98698 99.7986C7.53668 99.7986 7.17849 99.8089 6.9124 99.8293H6.51327C6.20625 99.8498 6.0118 99.9521 5.92993 100.136C5.88899 100.218 5.5615 101.446 4.94746 103.821C4.94746 103.882 4.93722 103.943 4.91675 104.005L3.96498 107.873H6.45187C8.10979 107.873 9.06156 107.853 9.30718 107.812C10.5353 107.607 11.6303 107.014 12.5923 106.031C13.5543 105.049 14.0456 103.923 14.066 102.654ZM12.4081 112.325C12.4081 111.425 12.1727 110.677 11.702 110.084C11.2312 109.49 10.6171 109.142 9.85982 109.04C9.73701 109.02 8.88758 109.009 7.31153 109.009C4.89629 109.009 3.67843 109.02 3.65796 109.04C3.65796 109.081 3.48398 109.828 3.13602 111.281C2.78807 112.735 2.42987 114.178 2.06145 115.61L1.5088 117.759C1.5088 117.841 1.63161 117.882 1.87723 117.882C2.12285 117.882 2.95181 117.903 4.36411 117.944C6.18578 117.944 7.16825 117.933 7.31153 117.913C8.58056 117.77 9.74724 117.176 10.8116 116.132C11.8759 115.088 12.4081 113.819 12.4081 112.325Z" fill="black"/>
<path d="M48.5673 102.497C61.2065 102.497 71.4525 92.251 71.4525 79.6118C71.4525 66.9727 61.2065 56.7267 48.5673 56.7267C35.9282 56.7267 25.6821 66.9727 25.6821 79.6118C25.6821 92.251 35.9282 102.497 48.5673 102.497Z" fill="#9BDA32" fill-opacity="0.5"/>
<path d="M42.2344 88.5216C42.2344 89.0291 42.7208 89.3252 43.6937 89.4098C44.0744 89.4098 44.2647 89.5262 44.2647 89.7588C44.2647 89.7799 44.2435 89.9174 44.2013 90.1712C44.1378 90.4673 44.0744 90.6576 44.0109 90.7422C43.9475 90.8268 43.81 90.8691 43.5985 90.8691C43.5562 90.8691 43.4293 90.8691 43.2178 90.8691C43.0063 90.8691 42.6468 90.8586 42.1392 90.8374C41.6316 90.8163 40.9548 90.8057 40.1088 90.8057C38.6072 90.8057 37.6449 90.8268 37.222 90.8691H36.9682C36.8201 90.7211 36.7461 90.6048 36.7461 90.5202C36.7884 89.9491 36.9259 89.579 37.1585 89.4098H37.6026C39.0831 89.3464 40.1617 88.8177 40.8385 87.8236C40.9654 87.6967 42.8794 84.4715 46.5806 78.1478C50.2817 71.8241 52.164 68.62 52.2274 68.5354C52.3755 68.2816 52.6293 68.1547 52.9888 68.1547H53.2426H53.7819C53.9088 68.345 53.9723 68.4508 53.9723 68.4719L54.8605 78.7188C55.4527 85.5501 55.77 88.9974 55.8123 89.0609C55.918 89.2935 56.6054 89.4098 57.8743 89.4098C58.4031 89.4098 58.6674 89.5156 58.6674 89.7271C58.6674 89.7694 58.6357 89.9174 58.5723 90.1712C58.5088 90.4885 58.4559 90.6788 58.4136 90.7422C58.3713 90.8057 58.2233 90.848 57.9695 90.8691C57.906 90.8691 57.758 90.8691 57.5254 90.8691C57.2927 90.8691 56.8803 90.8586 56.2881 90.8374C55.6959 90.8163 54.924 90.8057 53.9723 90.8057C51.9842 90.8057 50.6835 90.8268 50.0702 90.8691H49.6895C49.5626 90.7422 49.4992 90.6471 49.4992 90.5836C49.4992 90.5202 49.5203 90.3298 49.5626 90.0126C49.6472 89.7376 49.7107 89.5685 49.753 89.505L49.8799 89.4098H50.5143C51.6564 89.3464 52.3332 89.1666 52.5447 88.8705L52.164 84.1119H44.6137L43.535 85.9519C42.6679 87.4112 42.2344 88.2678 42.2344 88.5216ZM52.0054 82.6209C52.0054 82.3882 51.8785 80.7386 51.6247 77.6719C51.3709 74.6053 51.2228 73.0614 51.1805 73.0402L50.324 74.4043C49.9856 74.9754 49.3194 76.1069 48.3254 77.7988L45.4702 82.6209L48.7378 82.6526C50.9162 82.6526 52.0054 82.642 52.0054 82.6209Z" fill="black"/>
<rect x="161.5" y="9.5" width="150" height="184" fill="#FEFFBF" stroke="black"/>
<path d="M267.421 169C307.725 169 340.398 136.317 340.398 96C340.398 55.6832 307.725 23 267.421 23C227.118 23 194.445 55.6832 194.445 96C194.445 136.317 227.118 169 267.421 169Z" fill="#287B88" fill-opacity="0.5"/>
<path d="M251.526 150.167C283.848 150.167 310.051 123.964 310.051 91.6412C310.051 59.3184 283.848 33.1155 251.526 33.1155C219.203 33.1155 193 59.3184 193 91.6412C193 123.964 219.203 150.167 251.526 150.167Z" fill="#D83589" fill-opacity="0.5"/>
<path d="M248.128 89.4901C247.688 89.4901 247.427 89.482 247.345 89.4657C247.264 89.4494 247.223 89.3598 247.223 89.1968C247.223 88.7567 247.313 88.4878 247.492 88.39C247.508 88.3737 248.568 88.3656 250.67 88.3656C254.891 88.3656 257.116 88.3819 257.344 88.4145C258.371 88.5775 259.227 88.9442 259.911 89.5146C260.596 90.085 260.946 90.8347 260.962 91.7637C260.962 92.8068 260.49 93.744 259.544 94.5752C258.599 95.4064 257.515 95.9687 256.293 96.262L256.048 96.3354C257.092 96.482 257.947 96.8569 258.615 97.4599C259.284 98.063 259.626 98.8127 259.642 99.7091C259.642 100.899 259.055 102.048 257.882 103.156C256.709 104.264 255.266 104.892 253.555 105.039C253.441 105.055 251.721 105.063 248.397 105.063C245.137 105.063 243.483 105.047 243.434 105.014C243.369 104.965 243.336 104.9 243.336 104.819C243.336 104.704 243.352 104.59 243.385 104.476C243.466 104.167 243.548 103.995 243.629 103.963C243.694 103.947 243.817 103.938 243.996 103.938H244.143C244.583 103.938 245.072 103.914 245.61 103.865C245.838 103.816 245.993 103.718 246.074 103.572C246.123 103.507 246.71 101.241 247.834 96.7754C248.959 92.3097 249.521 89.9546 249.521 89.7102C249.521 89.5961 249.057 89.5227 248.128 89.4901ZM258.347 91.7637C258.347 91.2748 258.224 90.8184 257.98 90.3947C257.735 89.9709 257.336 89.6939 256.782 89.5635C256.668 89.5309 255.918 89.5064 254.533 89.4901C254.207 89.4901 253.865 89.4901 253.506 89.4901C253.147 89.4901 252.862 89.4983 252.65 89.5146H252.333C252.088 89.5309 251.933 89.6124 251.868 89.7591C251.835 89.8243 251.575 90.8021 251.086 92.6927C251.086 92.7416 251.078 92.7905 251.061 92.8394L250.303 95.9198H252.284C253.604 95.9198 254.362 95.9035 254.557 95.8709C255.535 95.7079 256.407 95.2352 257.173 94.4529C257.939 93.6706 258.33 92.7742 258.347 91.7637ZM257.026 99.4646C257.026 98.7475 256.839 98.1526 256.464 97.68C256.089 97.2073 255.6 96.9302 254.997 96.8488C254.899 96.8325 254.223 96.8243 252.968 96.8243C251.045 96.8243 250.075 96.8325 250.059 96.8488C250.059 96.8813 249.92 97.4762 249.643 98.6334C249.366 99.7906 249.081 100.94 248.788 102.08L248.348 103.792C248.348 103.857 248.445 103.89 248.641 103.89C248.837 103.89 249.497 103.906 250.621 103.938C252.072 103.938 252.854 103.93 252.968 103.914C253.979 103.8 254.908 103.327 255.755 102.496C256.603 101.665 257.026 100.654 257.026 99.4646Z" fill="black"/>
<path d="M285.819 91.6388C295.883 91.6388 304.042 83.4802 304.042 73.4161C304.042 63.3519 295.883 55.1934 285.819 55.1934C275.755 55.1934 267.596 63.3519 267.596 73.4161C267.596 83.4802 275.755 91.6388 285.819 91.6388Z" fill="#9BDA32" fill-opacity="0.5"/>
<path d="M142.04 98.402C142.04 98.1349 142.243 98.0013 142.648 98.0013C142.775 98.0013 142.876 98.0013 142.952 98.0013C143.028 98.0013 143.091 98.0013 143.142 98.0013C143.193 98.0013 143.243 98.0134 143.294 98.0377C143.345 98.062 143.37 98.0741 143.37 98.0741C143.37 98.0741 143.395 98.1106 143.446 98.1834C143.497 98.2563 143.522 98.2927 143.522 98.2927C143.522 98.2927 143.56 98.3534 143.636 98.4748C144.573 100.272 145.815 101.862 147.36 103.247C148.905 104.631 150.311 105.614 151.578 106.197C152.845 106.78 154.061 107.229 155.226 107.545C155.657 107.666 155.872 107.824 155.872 108.018C155.872 108.212 155.758 108.346 155.53 108.419C155.302 108.492 154.833 108.625 154.124 108.82C153.415 109.014 152.68 109.305 151.92 109.694C148.272 111.394 145.511 114.016 143.636 117.562C143.535 117.78 143.446 117.902 143.37 117.926C143.294 117.95 143.104 117.974 142.8 117.999C142.293 117.999 142.04 117.914 142.04 117.744C142.04 117.647 142.103 117.44 142.23 117.124C143.117 115.449 144.206 113.955 145.498 112.644L145.878 112.28H122.66C122.305 112.11 122.128 111.867 122.128 111.551C122.128 111.187 122.331 110.944 122.736 110.823H147.55L147.93 110.532C148.918 109.803 150.4 108.965 152.376 108.018C152.351 107.994 152.123 107.885 151.692 107.69C151.261 107.496 150.691 107.205 149.982 106.816C149.273 106.428 148.589 105.991 147.93 105.505L147.55 105.213H122.736C122.331 105.092 122.128 104.849 122.128 104.485C122.128 104.169 122.305 103.926 122.66 103.756H145.878L145.498 103.392C144.662 102.542 143.877 101.559 143.142 100.442C142.407 99.3247 142.04 98.6448 142.04 98.402Z" fill="black"/>
</g>
<defs>
<clipPath id="clip0">
<rect width="274" height="210" fill="white"/>
</clipPath>
</defs>
</svg>
