<svg width="280" height="280" viewBox="0 0 280 280" fill="none" xmlns="http://www.w3.org/2000/svg">
<path d="M0 80C0 51.9974 0 37.9961 5.44967 27.3005C10.2433 17.8924 17.8924 10.2433 27.3005 5.44967C37.9961 0 51.9974 0 80 0H200C228.003 0 242.004 0 252.7 5.44967C262.108 10.2433 269.757 17.8924 274.55 27.3005C280 37.9961 280 51.9974 280 80V200C280 228.003 280 242.004 274.55 252.7C269.757 262.108 262.108 269.757 252.7 274.55C242.004 280 228.003 280 200 280H80C51.9974 280 37.9961 280 27.3005 274.55C17.8924 269.757 10.2433 262.108 5.44967 252.7C0 242.004 0 228.003 0 200V80Z" fill="url(#paint0_linear_58_672)"/>
<path fill-rule="evenodd" clip-rule="evenodd" d="M65.9258 226.471C61 218.972 61 208.581 61 187.8L61 127.498C61 106.716 61 96.3256 65.9258 88.8268C68.1759 85.4014 71.1039 82.4734 74.5293 80.2233C82.0281 75.2975 92.4188 75.2975 113.2 75.2975L136.181 75.2975C143.672 75.2975 149.813 75.2975 154.955 75.5283L154.955 69.438C154.955 66.6766 157.193 64.438 159.955 64.438L165 64.438L165 41C165 36.5817 168.582 33 173 33L175 33C179.418 33 183 36.5817 183 41L183 64.438L187.898 64.438C190.659 64.438 192.898 66.6766 192.898 69.4381L192.898 113.736C192.898 116.497 190.659 118.736 187.898 118.736L183 118.736L183 130.5L209.148 130.5C212.647 130.5 215.483 133.336 215.483 136.835C215.483 140.333 212.647 143.169 209.148 143.169L139.607 143.169C136.109 143.169 133.273 140.333 133.273 136.835C133.273 133.336 136.109 130.5 139.607 130.5L165 130.5L165 118.736L159.955 118.736C157.193 118.736 154.955 116.497 154.955 113.736L154.955 109.686L138.775 109.686C122.009 109.686 113.626 109.686 107.219 112.943C101.553 115.822 96.9488 120.427 94.0691 126.092C90.8125 132.499 90.8125 140.882 90.8125 157.649C90.8125 174.415 90.8125 182.799 94.0691 189.205C96.9488 194.871 101.553 199.475 107.219 202.355C113.626 205.612 122.009 205.612 138.775 205.612L145.037 205.612C145.013 205.411 145 205.207 145 205L145 203C145 200.239 147.239 198 150 198L202 198C204.761 198 207 200.239 207 203L207 205C207 207.761 204.761 210 202 210L187.949 210C187.409 217.242 186.193 222.303 183.455 226.471C181.205 229.896 178.277 232.824 174.851 235.074C167.353 240 156.962 240 136.181 240L113.2 240C92.4187 240 82.0281 240 74.5293 235.074C71.1039 232.824 68.1759 229.896 65.9258 226.471Z" fill="black"/>
<mask id="path-3-inside-1_58_672" fill="white">
<path fill-rule="evenodd" clip-rule="evenodd" d="M148.961 43.5248C147.089 40.7923 143.948 39 140.389 39C134.651 39 130 43.6594 130 49.407C130 55.1547 134.651 59.8141 140.389 59.8141C143.538 59.8141 146.36 58.4107 148.265 56.1942L202.076 56.1942C203.981 58.4107 206.803 59.8141 209.952 59.8141C215.689 59.8141 220.341 55.1547 220.341 49.4071C220.341 43.6594 215.689 39 209.952 39C206.393 39 203.252 40.7923 201.38 43.5248L148.961 43.5248Z"/>
</mask>
<path d="M148.961 43.5248L148.961 47.5248L146.853 47.5248L145.661 45.7858L148.961 43.5248ZM148.265 56.1942L145.232 53.5868L146.429 52.1942L148.265 52.1942L148.265 56.1942ZM202.076 56.1942L202.076 52.1942L203.912 52.1942L205.109 53.5868L202.076 56.1942ZM201.38 43.5248L204.68 45.7858L203.488 47.5248L201.38 47.5248L201.38 43.5248ZM145.661 45.7858C144.502 44.0935 142.571 43 140.389 43L140.389 35C145.325 35 149.675 37.491 152.261 41.2638L145.661 45.7858ZM140.389 43C136.867 43 134 45.8621 134 49.407L126 49.407C126 41.4567 132.436 35 140.389 35L140.389 43ZM134 49.407C134 52.952 136.867 55.8141 140.389 55.8141L140.389 63.8141C132.436 63.8141 126 57.3574 126 49.407L134 49.407ZM140.389 55.8141C142.322 55.8141 144.053 54.958 145.232 53.5868L151.299 58.8017C148.667 61.8634 144.754 63.8141 140.389 63.8141L140.389 55.8141ZM202.076 60.1942L148.265 60.1942L148.265 52.1942L202.076 52.1942L202.076 60.1942ZM209.952 63.8141C205.587 63.8141 201.674 61.8634 199.042 58.8017L205.109 53.5868C206.288 54.958 208.019 55.8141 209.952 55.8141L209.952 63.8141ZM224.341 49.4071C224.341 57.3574 217.905 63.8141 209.952 63.8141L209.952 55.8141C213.474 55.8141 216.341 52.952 216.341 49.4071L224.341 49.4071ZM209.952 35C217.905 35 224.341 41.4567 224.341 49.4071L216.341 49.4071C216.341 45.8621 213.474 43 209.952 43L209.952 35ZM198.08 41.2639C200.665 37.491 205.016 35 209.952 35L209.952 43C207.77 43 205.839 44.0935 204.68 45.7858L198.08 41.2639ZM148.961 39.5248L201.38 39.5248L201.38 47.5248L148.961 47.5248L148.961 39.5248Z" fill="black" mask="url(#path-3-inside-1_58_672)"/>
<defs>
<linearGradient id="paint0_linear_58_672" x1="140" y1="0" x2="140" y2="280" gradientUnits="userSpaceOnUse">
<stop stop-color="#FFF174"/>
<stop offset="1" stop-color="#FFE600"/>
</linearGradient>
</defs>
</svg>
