<svg width="128" height="128" viewBox="0 0 128 128" fill="none" xmlns="http://www.w3.org/2000/svg">
<rect width="128" height="128" fill="#18A0FB"/>
<path d="M22 37.6254C22 37.0578 22.1806 36.645 22.5418 36.387C22.903 36.129 23.2384 36 23.548 36C24.1672 36 24.6316 36.3612 24.9412 37.0836C25.2509 37.806 26.3861 40.7215 28.3469 45.83L31.7526 54.8085H55.2825L58.6108 45.9074C59.1268 44.5141 59.6686 43.0693 60.2362 41.5729C60.8038 40.0765 61.2682 38.8896 61.6295 38.0124C61.9907 37.1352 62.1713 36.6966 62.1713 36.6966C62.4293 36.2322 62.9195 36 63.6419 36C64.5707 36.1032 65.0351 36.6192 65.0351 37.548C65.0351 37.7544 61.6811 46.6556 54.9729 64.2515C48.2648 81.8474 44.8334 90.7227 44.6786 90.8775C44.4206 91.2387 44.0336 91.4193 43.5176 91.4193C43.0015 91.4193 42.6145 91.2387 42.3565 90.8775C42.2017 90.6711 38.7961 81.8216 32.1396 64.3289C25.4831 46.8362 22.1032 37.935 22 37.6254ZM54.0441 57.982C54.0441 57.9304 50.5353 57.9046 43.5176 57.9046C36.4998 57.9046 32.991 57.9304 32.991 57.982L43.5176 85.4594L54.0441 57.982Z" fill="white"/>
<path d="M69.06 67.3475C69.4212 65.1803 70.8144 62.6777 73.2396 59.8396C75.6649 57.0016 78.6577 55.5568 82.2182 55.5052C84.0242 55.5052 85.6754 55.9696 87.1719 56.8984C88.6683 57.8272 89.7777 58.9882 90.5001 60.3814C92.6674 57.1306 95.2732 55.5052 98.3176 55.5052C100.227 55.5052 101.878 56.0728 103.271 57.208C104.665 58.3432 105.387 59.8654 105.439 61.7747C105.439 63.2711 105.077 64.4837 104.355 65.4125C103.633 66.3413 102.936 66.9089 102.265 67.1153C101.594 67.3217 101.001 67.4249 100.485 67.4249C99.5045 67.4249 98.7046 67.1411 98.0854 66.5735C97.4662 66.0059 97.1566 65.2577 97.1566 64.3289C97.1566 61.9553 98.4466 60.3298 101.027 59.4526C100.459 58.7818 99.4271 58.4464 97.9306 58.4464C97.2598 58.4464 96.7696 58.498 96.46 58.6012C94.4992 59.4268 93.0544 61.1296 92.1255 63.7097C89.0295 75.1135 87.4815 81.77 87.4815 83.6792C87.4815 85.124 87.8943 86.1561 88.7199 86.7753C89.5455 87.3945 90.4485 87.7041 91.4289 87.7041C93.3382 87.7041 95.2216 86.8527 97.0792 85.1498C98.9369 83.447 100.201 81.3572 100.872 78.8803C101.027 78.3643 101.181 78.0805 101.336 78.0289C101.491 77.9773 101.904 77.9257 102.575 77.8741H102.884C103.658 77.8741 104.045 78.0805 104.045 78.4933C104.045 78.5449 103.994 78.8287 103.891 79.3447C103.065 82.286 101.465 84.8918 99.0917 87.1623C96.718 89.4327 93.9574 90.5679 90.8097 90.5679C87.1977 90.5679 84.4628 88.9425 82.6052 85.6917C80.4896 88.8909 78.0643 90.4905 75.3295 90.4905H74.8651C72.3366 90.4905 70.5306 89.8197 69.447 88.4781C68.3634 87.1365 67.7957 85.7175 67.7441 84.221C67.7441 82.5698 68.2343 81.2282 69.2148 80.1962C70.1952 79.1641 71.3562 78.6481 72.6978 78.6481C74.9167 78.6481 76.0261 79.7318 76.0261 81.899C76.0261 82.931 75.7165 83.834 75.0973 84.608C74.4781 85.382 73.8846 85.8981 73.317 86.1561C72.7494 86.4141 72.414 86.5431 72.3108 86.5431L72.0786 86.6205C72.0786 86.6721 72.2334 86.7753 72.543 86.9301C72.8526 87.0849 73.2654 87.2655 73.7814 87.4719C74.2974 87.6783 74.7877 87.7557 75.2521 87.7041C77.1097 87.7041 78.7093 86.5431 80.0509 84.221C80.5154 83.3954 81.1088 81.641 81.8312 78.9577C82.5536 76.2745 83.276 73.488 83.9984 70.5984C84.7208 67.7088 85.1336 66.0059 85.2368 65.4899C85.4948 64.0967 85.6238 63.0905 85.6238 62.4713C85.6238 61.0264 85.2368 59.9944 84.4628 59.3752C83.6888 58.756 82.8116 58.4464 81.8312 58.4464C79.7671 58.4464 77.8321 59.272 76.0261 60.9232C74.22 62.5745 72.9558 64.6901 72.2334 67.2701C72.1302 67.7346 72.0012 67.9926 71.8464 68.0442C71.6916 68.0958 71.2788 68.1474 70.608 68.199H69.5244C69.2148 67.8894 69.06 67.6056 69.06 67.3475Z" fill="white"/>
</svg>
