<?xml version="1.0" encoding="UTF-8"?>
<svg width="192px" height="192px" viewBox="0 0 192 192" version="1.1" xmlns="http://www.w3.org/2000/svg" xmlns:xlink="http://www.w3.org/1999/xlink">
    <!-- Generator: Sketch 52.6 (67491) - http://www.bohemiancoding.com/sketch -->
    <title>192 - xxxhpdi</title>
    <desc>Created with Sketch.</desc>
    <g id="192---xxxhpdi" stroke="none" stroke-width="1" fill="none" fill-rule="evenodd">
        <ellipse id="Oval-6" stroke="#5850FF" fill="#FFFFFF" stroke-width="13" cx="95.3530322" cy="95.2441406" rx="88.8530322" ry="88.7441406"></ellipse>
        <path d="M3.62100122,112.942384 C3.62100122,112.942384 15.8662208,150.289342 41.6344418,168.521 C57.4663936,179.7225 82.3324142,188.5859 104.56584,186.426371 C132.774883,183.686431 157.217327,167.359085 158.767702,161.188369 C159.651444,157.670949 165.142255,152.927421 169.527344,145.820736 C178.898427,130.63351 189.945273,110.117753 187.488183,106.139567 C183.881326,100.299836 96.8402635,168.846779 68.4804688,134.1875 C40.120674,99.5282213 3.62100122,112.942384 3.62100122,112.942384 Z" id="Path-2" fill="#5850FF" opacity="0.689594656"></path>
        <path d="M9.43204811,65.1046994 C9.43204811,65.1046994 9.24581172,85.6026287 56.0760131,95.7986119 C73.0234348,99.488445 118.991257,88.8279892 132.855469,83.4960938 C157.301736,74.0945541 181.585196,96 181.585196,96 C181.585196,96 185.019961,85.2737513 185.019961,95.7986119 C185.019961,105.441233 181.585196,125.607146 181.585196,125.607146 L168.534504,151.167746 L136.999261,176.087859 L100.098524,188.261816 L56.0760131,178.006964 L29.4159201,160.228749 L3.62100122,111.509374 L4.42488236,78.5313729 L9.43204811,65.1046994 Z" id="Path-3" fill="#5850FF" opacity="0.424818841"></path>
        <path d="M93.6791317,108.456763 L93.610276,108.456763 L106.761762,41.4567632 L119.913247,108.456763 L119.844391,108.456763 C119.88992,108.901404 119.913247,109.352611 119.913247,109.80926 C119.913247,117.064331 114.025126,122.945727 106.761762,122.945727 C99.4983966,122.945727 93.610276,117.064331 93.610276,109.80926 C93.610276,109.352611 93.633603,108.901404 93.6791317,108.456763 Z" id="Combined-Shape" fill="#5850FF" transform="translate(106.761762, 82.201245) rotate(30.000000) translate(-106.761762, -82.201245) "></path>
    </g>
</svg>