<svg width="191" height="88" viewBox="0 0 191 88" fill="none" xmlns="http://www.w3.org/2000/svg">
<path d="M150.5 81C172.868 81 191 62.8675 191 40.5C191 18.1325 172.868 0 150.5 0C128.132 0 110 18.1325 110 40.5C110 62.8675 128.132 81 150.5 81Z" fill="#D83589" fill-opacity="0.5"/>
<path d="M148.148 39.0115C147.844 39.0115 147.664 39.0059 147.607 38.9946C147.551 38.9833 147.523 38.9213 147.523 38.8085C147.523 38.504 147.585 38.3179 147.709 38.2502C147.72 38.2389 148.453 38.2333 149.908 38.2333C152.829 38.2333 154.369 38.2446 154.526 38.2671C155.237 38.3799 155.829 38.6337 156.303 39.0284C156.776 39.4232 157.019 39.942 157.03 40.5848C157.03 41.3066 156.703 41.9551 156.049 42.5303C155.395 43.1055 154.645 43.4946 153.799 43.6977L153.63 43.7484C154.352 43.8499 154.944 44.1093 155.406 44.5266C155.869 44.9439 156.105 45.4627 156.117 46.083C156.117 46.9064 155.711 47.7015 154.899 48.4684C154.087 49.2353 153.088 49.6696 151.904 49.7711C151.825 49.7823 150.635 49.788 148.335 49.788C146.079 49.788 144.934 49.7767 144.9 49.7541C144.855 49.7203 144.833 49.6752 144.833 49.6188C144.833 49.5399 144.844 49.4609 144.866 49.382C144.923 49.1677 144.979 49.0492 145.036 49.0267C145.081 49.0154 145.165 49.0098 145.289 49.0098H145.391C145.695 49.0098 146.034 48.9929 146.406 48.959C146.564 48.9252 146.671 48.8575 146.727 48.756C146.761 48.7109 147.167 47.1432 147.945 44.0529C148.724 40.9627 149.113 39.3329 149.113 39.1637C149.113 39.0848 148.791 39.034 148.148 39.0115ZM155.22 40.5848C155.22 40.2465 155.135 39.9307 154.966 39.6374C154.797 39.3442 154.521 39.1525 154.137 39.0622C154.058 39.0397 153.54 39.0228 152.581 39.0115C152.355 39.0115 152.118 39.0115 151.87 39.0115C151.622 39.0115 151.425 39.0171 151.278 39.0284H151.058C150.889 39.0397 150.782 39.0961 150.737 39.1976C150.714 39.2427 150.534 39.9194 150.196 41.2277C150.196 41.2615 150.19 41.2954 150.179 41.3292L149.654 43.4608H151.024C151.938 43.4608 152.462 43.4495 152.598 43.427C153.275 43.3142 153.878 42.9871 154.408 42.4458C154.938 41.9044 155.209 41.2841 155.22 40.5848ZM154.306 45.9139C154.306 45.4176 154.177 45.0059 153.917 44.6789C153.658 44.3518 153.32 44.1601 152.902 44.1037C152.835 44.0924 152.367 44.0868 151.498 44.0868C150.167 44.0868 149.496 44.0924 149.485 44.1037C149.485 44.1262 149.389 44.5379 149.197 45.3387C149.006 46.1394 148.808 46.9346 148.605 47.724L148.301 48.9083C148.301 48.9534 148.368 48.9759 148.504 48.9759C148.639 48.9759 149.096 48.9872 149.874 49.0098C150.878 49.0098 151.419 49.0041 151.498 48.9929C152.197 48.9139 152.84 48.5868 153.427 48.0116C154.013 47.4364 154.306 46.7372 154.306 45.9139Z" fill="black"/>
<path d="M164.145 21.9894C164.692 21.909 165.07 21.4009 164.989 20.8545L163.68 11.9503C163.6 11.4039 163.091 11.0261 162.545 11.1064C161.999 11.1868 161.621 11.6949 161.701 12.2413L162.865 20.1561L154.95 21.3201C154.404 21.4004 154.026 21.9085 154.106 22.4549C154.187 23.0014 154.695 23.3792 155.241 23.2988L164.145 21.9894ZM64.5 12C65.0255 12.8508 65.0252 12.851 65.0249 12.8511C65.0249 12.8511 65.0247 12.8513 65.0247 12.8513C65.0247 12.8513 65.025 12.8511 65.0255 12.8508C65.0265 12.8502 65.0286 12.8489 65.0317 12.847C65.0379 12.8433 65.0482 12.837 65.0626 12.8284C65.0914 12.8112 65.1368 12.7844 65.1984 12.7488C65.3218 12.6776 65.5107 12.5711 65.7645 12.435C66.2721 12.1628 67.0393 11.7724 68.0612 11.3093C70.105 10.3831 73.1673 9.16648 77.2093 8.02484C85.2916 5.74205 97.2978 3.75693 112.921 4.99686L113.079 3.00313C97.2022 1.74306 84.9584 3.75793 76.6657 6.10014C72.5202 7.271 69.3638 8.52316 67.2357 9.48759C66.1716 9.9698 65.3646 10.3801 64.8195 10.6724C64.5469 10.8185 64.3398 10.9352 64.1988 11.0166C64.1283 11.0572 64.0743 11.0891 64.0369 11.1115C64.0182 11.1226 64.0036 11.1314 63.9932 11.1377C63.988 11.1409 63.9839 11.1434 63.9807 11.1454C63.9792 11.1463 63.9779 11.1471 63.9768 11.1477C63.9763 11.1481 63.9757 11.1484 63.9755 11.1486C63.975 11.1489 63.9745 11.1492 64.5 12ZM112.921 4.99686C128.535 6.2361 141.174 10.4495 149.905 14.3505C154.269 16.3008 157.655 18.1719 159.945 19.5518C161.089 20.2417 161.96 20.8086 162.541 21.201C162.832 21.3971 163.05 21.5497 163.195 21.6521C163.267 21.7033 163.32 21.7419 163.355 21.7673C163.373 21.7799 163.385 21.7893 163.393 21.7952C163.397 21.7981 163.4 21.8002 163.402 21.8014C163.403 21.802 163.403 21.8024 163.403 21.8026C163.404 21.8027 163.404 21.8027 163.404 21.8027C163.403 21.8026 163.403 21.8025 164 21C164.597 20.1975 164.596 20.1973 164.596 20.197C164.596 20.1968 164.595 20.1964 164.595 20.1961C164.594 20.1954 164.593 20.1944 164.591 20.1933C164.588 20.191 164.584 20.1878 164.578 20.1838C164.567 20.1757 164.551 20.1642 164.531 20.1494C164.49 20.1197 164.43 20.0766 164.352 20.021C164.195 19.9098 163.964 19.7484 163.66 19.5432C163.052 19.1328 162.153 18.5474 160.977 17.8388C158.626 16.4219 155.168 14.5117 150.72 12.5245C141.826 8.55047 128.965 4.26389 113.079 3.00313L112.921 4.99686Z" fill="#585858"/>
<path d="M41.7346 86.2955C64.2317 86.2955 82.4692 68.0969 82.4692 45.6477C82.4692 23.1986 64.2317 5 41.7346 5C19.2375 5 1 23.1986 1 45.6477C1 68.0969 19.2375 86.2955 41.7346 86.2955Z" stroke="#585858" stroke-width="2" stroke-dasharray="5 3"/>
<path d="M174.231 40.4984C181.195 40.4984 186.841 34.8526 186.841 27.8882C186.841 20.9237 181.195 15.278 174.231 15.278C167.267 15.278 161.621 20.9237 161.621 27.8882C161.621 34.8526 167.267 40.4984 174.231 40.4984Z" fill="#9BDA32" fill-opacity="0.5"/>
<path d="M170.741 32.7976C170.741 33.0773 171.009 33.2404 171.545 33.287C171.755 33.287 171.86 33.3511 171.86 33.4793C171.86 33.491 171.848 33.5667 171.825 33.7066C171.79 33.8697 171.755 33.9746 171.72 34.0212C171.685 34.0678 171.61 34.0911 171.493 34.0911C171.47 34.0911 171.4 34.0911 171.283 34.0911C171.167 34.0911 170.969 34.0853 170.689 34.0737C170.409 34.062 170.036 34.0562 169.57 34.0562C168.743 34.0562 168.212 34.0678 167.979 34.0911H167.84C167.758 34.0096 167.717 33.9455 167.717 33.8989C167.74 33.5842 167.816 33.3803 167.944 33.287H168.189C169.005 33.2521 169.599 32.9607 169.972 32.413C170.042 32.3431 171.097 30.5659 173.136 27.0814C175.176 23.5969 176.213 21.8314 176.248 21.7848C176.329 21.6449 176.469 21.575 176.667 21.575H176.807H177.104C177.174 21.6799 177.209 21.7382 177.209 21.7498L177.699 27.3961C178.025 31.1602 178.2 33.0598 178.223 33.0947C178.281 33.2229 178.66 33.287 179.359 33.287C179.651 33.287 179.796 33.3453 179.796 33.4618C179.796 33.4851 179.779 33.5667 179.744 33.7066C179.709 33.8814 179.68 33.9863 179.656 34.0212C179.633 34.0562 179.552 34.0795 179.412 34.0911C179.377 34.0911 179.295 34.0911 179.167 34.0911C179.039 34.0911 178.812 34.0853 178.485 34.0737C178.159 34.062 177.734 34.0562 177.209 34.0562C176.114 34.0562 175.397 34.0678 175.059 34.0911H174.849C174.779 34.0212 174.744 33.9688 174.744 33.9338C174.744 33.8989 174.756 33.794 174.779 33.6192C174.826 33.4677 174.861 33.3744 174.884 33.3395L174.954 33.287H175.304C175.933 33.2521 176.306 33.153 176.423 32.9899L176.213 30.3678H172.052L171.458 31.3816C170.98 32.1858 170.741 32.6577 170.741 32.7976ZM176.125 29.5462C176.125 29.418 176.055 28.509 175.916 26.8192C175.776 25.1294 175.694 24.2787 175.671 24.267L175.199 25.0187C175.012 25.3334 174.645 25.9568 174.098 26.8891L172.524 29.5462L174.325 29.5637C175.525 29.5637 176.125 29.5578 176.125 29.5462Z" fill="black"/>
</svg>
