<?xml version="1.0" encoding="UTF-8"?>
<svg width="100px" height="100px" viewBox="0 0 100 100" version="1.1" xmlns="http://www.w3.org/2000/svg" xmlns:xlink="http://www.w3.org/1999/xlink">
    <!-- Generator: Sketch 51.1 (57501) - http://www.bohemiancoding.com/sketch -->
    <title>Icon</title>
    <desc>Created with Sketch.</desc>
    <defs></defs>
    <g id="Icon" stroke="none" stroke-width="1" fill="none" fill-rule="evenodd">
        <rect id="Rectangle-7" fill="#4A90E2" x="0" y="0" width="100" height="100" rx="21"></rect>
        <path d="M64.7096225,36.829672 C66.1243367,36.829672 67.4902471,36.6589332 68.8073948,36.3174505 C70.1245425,35.9759678 71.3441054,35.5491208 72.46612,35.0368967 C73.5881347,34.5246726 74.5759807,33.9758693 75.4296875,33.3904703 C76.2833943,32.8050713 76.9297627,32.2440724 77.3688119,31.7074567 L79.125,40.0493502 C77.4663696,42.3421629 75.2589608,44.0495509 72.5027073,45.1715656 C69.7464538,46.2935803 66.8804811,46.8545792 63.904703,46.8545792 C61.3679741,46.8545792 58.8434789,46.4521235 56.3311417,45.6471999 C53.8188045,44.8422763 51.3308962,43.9519954 48.8673422,42.9763304 C46.4037882,42.0006655 44.013445,41.1103846 41.6962407,40.305461 C39.3790365,39.5005374 37.1228451,39.0980817 34.927599,39.0980817 C33.4641016,39.0980817 32.0616043,39.2566249 30.720065,39.573716 C29.3785257,39.8908071 28.1345715,40.3054585 26.9881652,40.8176825 C25.8417589,41.3299066 24.853913,41.8909056 24.0245978,42.5006962 C23.1952826,43.1104868 22.5611099,43.7080726 22.1220606,44.2934715 L20,36.3174505 C21.7074137,33.8295049 23.9514094,31.9879649 26.7320545,30.7927754 C29.5126995,29.5975858 32.5128242,29 35.7325186,29 C38.3180307,29 40.8791127,29.4024558 43.4158416,30.2073793 C45.9525704,31.0123029 48.4404787,31.9147794 50.8796411,32.914836 C53.3188034,33.9148926 55.6969511,34.8173691 58.0141553,35.6222927 C60.3313596,36.4272163 62.5631596,36.829672 64.7096225,36.829672 Z M64.7096225,61.5626547 C66.1243367,61.5626547 67.4902471,61.4041115 68.8073948,61.0870204 C70.1245425,60.7699293 71.3441054,60.3552779 72.46612,59.8430538 C73.5881347,59.3308297 74.5759807,58.7820264 75.4296875,58.1966275 C76.2833943,57.6112285 76.9297627,57.0502296 77.3688119,56.5136139 L79.125,64.7823329 C77.4663696,67.1239288 75.2589608,68.8557081 72.5027073,69.9777228 C69.7464538,71.0997375 66.8804811,71.6607364 63.904703,71.6607364 C61.3679741,71.6607364 58.8434789,71.2582806 56.3311417,70.4533571 C53.8188045,69.6484335 51.3308962,68.7459569 48.8673422,67.7459004 C46.4037882,66.7458438 44.013445,65.8433673 41.6962407,65.0384437 C39.3790365,64.2335201 37.1228451,63.8310644 34.927599,63.8310644 C33.4641016,63.8310644 32.0616043,64.0018032 30.720065,64.3432859 C29.3785257,64.6847686 28.1345715,65.1116156 26.9881652,65.6238397 C25.8417589,66.1360638 24.853913,66.6970628 24.0245978,67.3068533 C23.1952826,67.9166439 22.5611099,68.5142297 22.1220606,69.0996287 L20,61.1236077 C21.7074137,58.6356621 23.9514094,56.7941221 26.7320545,55.5989325 C29.5126995,54.403743 32.5128242,53.8061572 35.7325186,53.8061572 C38.3180307,53.8061572 40.8791127,54.2086129 43.4158416,55.0135365 C45.9525704,55.8184601 48.4404787,56.708741 50.8796411,57.6844059 C53.3188034,58.6600709 55.6969511,59.5503518 58.0141553,60.3552754 C60.3313596,61.160199 62.5631596,61.5626547 64.7096225,61.5626547 Z" id="≈" fill="#FFFFFF"></path>
    </g>
</svg>